# xmcd CD database file
#
# Track frame offsets:
#	150
#	32727
#	68507
#	103902
#	162410
#	196230
#	239617
#	272702
#	296137
#	307242
#
# Disc length: 4385 seconds
#
# Revision: 0
# Processed by: cddbd v1.4PL0 Copyright (c) Steve Scherf et al.
# Submitted via: CDex 1.50beta10
#
DISCID=98111f0a
DTITLE=Ivo Perelman - Sad Life
DYEAR=1900
DGENRE=Jazz
TTITLE0=Sad Life
TTITLE1=Urgencia
TTITLE2=Hoedown
TTITLE3=Dualities
TTITLE4=Warm Velvet
TTITLE5=Life Forms
TTITLE6=Xaiapo
TTITLE7=Alagoana
TTITLE8=Scratch
TTITLE9=Espiral
EXTD=
EXTT0=
EXTT1=
EXTT2=
EXTT3=
EXTT4=
EXTT5=
EXTT6=
EXTT7=
EXTT8=
EXTT9=
PLAYORDER=
